<svg viewBox="0 0 25 24" fill="none">
  <path d="M12.5005 21.6163L12.4047 21.4726C11.7396 20.4751 11.4071 19.9763 10.9678 19.6153C10.5789 19.2956 10.1307 19.0558 9.64903 18.9095C9.10491 18.7442 8.50546 18.7442 7.30656 18.7442H5.99034C4.91799 18.7442 4.38181 18.7442 3.97222 18.5355C3.61194 18.352 3.31902 18.059 3.13545 17.6988C2.92676 17.2892 2.92676 16.753 2.92676 15.6806V7.44725C2.92676 6.3749 2.92676 5.83872 3.13545 5.42913C3.31902 5.06885 3.61194 4.77593 3.97222 4.59236C4.38181 4.38367 4.91799 4.38367 5.99034 4.38367H6.37329C8.518 4.38367 9.59036 4.38367 10.4095 4.80106C11.1301 5.1682 11.7159 5.75404 12.0831 6.4746C12.5005 7.29377 12.5005 8.36613 12.5005 10.5108M12.5005 21.6163V10.5108M12.5005 21.6163L12.5963 21.4726C13.2613 20.4751 13.5938 19.9763 14.0331 19.6153C14.422 19.2956 14.8702 19.0558 15.3519 18.9095C15.896 18.7442 16.4955 18.7442 17.6944 18.7442H19.0106C20.0829 18.7442 20.6191 18.7442 21.0287 18.5355C21.389 18.352 21.6819 18.059 21.8655 17.6988C22.0742 17.2892 22.0742 16.753 22.0742 15.6806V7.44725C22.0742 6.3749 22.0742 5.83872 21.8655 5.42913C21.6819 5.06885 21.389 4.77593 21.0287 4.59236C20.6191 4.38367 20.0829 4.38367 19.0106 4.38367H18.6276C16.4829 4.38367 15.4106 4.38367 14.5914 4.80106C13.8708 5.1682 13.285 5.75404 12.9179 6.4746C12.5005 7.29377 12.5005 8.36613 12.5005 10.5108" stroke="currentColor" stroke-width="1.75" stroke-linecap="round" stroke-linejoin="round"/>
</svg>
