<svg viewBox="0 0 25 24" fill="none">
  <path d="M16.3571 4.59572C16.0011 4.45095 15.6323 4.32567 15.2525 4.2215C14.3896 3.98485 13.4701 3.85712 12.5158 3.85712C7.55394 3.85712 3.53157 7.31052 3.53157 11.5705C3.53157 13.0853 4.04019 14.4982 4.91929 15.682C4.91929 17.1793 4.12865 18.7105 3.53206 20.0464C3.41989 20.295 3.61753 20.5816 3.88485 20.5711C6.22455 20.4792 7.90282 19.8361 8.91859 18.6407C10.02 19.0544 11.2367 19.2839 12.5158 19.2839C17.4776 19.2839 21.5 15.8305 21.5 11.5705C21.5 11.1602 21.4627 10.7573 21.3908 10.3643" stroke="currentColor" stroke-width="1.71429" stroke-linecap="round" stroke-linejoin="round"/>
  <rect x="17.6426" y="5.14331" width="3.42857" height="3.42857" rx="1.71429" fill="currentColor"/>
  <path fill-rule="evenodd" clip-rule="evenodd" d="M12.516 4.7141C7.90026 4.7141 4.38896 7.90174 4.38896 11.5703C4.38896 12.8877 4.83008 14.1237 5.6077 15.1709C5.71743 15.3186 5.77668 15.4978 5.77668 15.6819C5.77668 16.5749 5.54214 17.4407 5.25368 18.2216C5.07199 18.7134 4.85614 19.2028 4.65002 19.6575C6.41237 19.4703 7.56852 18.9059 8.26567 18.0855C8.49982 17.81 8.88169 17.711 9.22019 17.8382C10.2249 18.2155 11.3395 18.4266 12.516 18.4266C17.1318 18.4266 20.6431 15.2389 20.6431 11.5703C20.6431 11.2121 20.6105 10.8609 20.5479 10.5184C20.4627 10.0527 20.7712 9.60617 21.2368 9.52099C21.7025 9.43582 22.149 9.74426 22.2342 10.2099C22.3153 10.6534 22.3574 11.1079 22.3574 11.5703C22.3574 16.4217 17.8239 20.1409 12.516 20.1409C11.3391 20.1409 10.2077 19.961 9.15774 19.6295C7.91931 20.7854 6.1199 21.341 3.91874 21.4274C3.02208 21.4627 2.3749 20.5301 2.75035 19.6952C2.82727 19.523 2.90487 19.3528 2.98201 19.1835C3.21834 18.6651 3.45038 18.156 3.6456 17.6275C3.86512 17.0333 4.01463 16.4718 4.05278 15.9429C3.18121 14.6737 2.67467 13.1759 2.67467 11.5703C2.67467 6.71898 7.20812 2.99982 12.516 2.99982C13.5469 2.99982 14.5426 3.13781 15.4794 3.39472C15.8918 3.50782 16.2928 3.64397 16.6803 3.80157C17.1188 3.97991 17.3297 4.47996 17.1514 4.91847C16.9731 5.35698 16.473 5.5679 16.0345 5.38956C15.71 5.25761 15.3733 5.14321 15.026 5.04796C14.2371 4.83159 13.3938 4.7141 12.516 4.7141ZM4.31357 20.3989L4.31496 20.3958C4.3145 20.3968 4.31403 20.3979 4.31357 20.3989Z" fill="currentColor"/>
  <path d="M17.6428 6.85738C17.6428 5.9106 18.4103 5.14309 19.3571 5.14309C20.3039 5.14309 21.0714 5.9106 21.0714 6.85738C21.0714 7.80415 20.3039 8.57166 19.3571 8.57166C18.4103 8.57166 17.6428 7.80415 17.6428 6.85738Z" fill="currentColor"/>
</svg>
